<svg width="32" height="32" viewBox="0 0 32 32" fill="none" xmlns="http://www.w3.org/2000/svg">
<path d="M9.50495 25.9048C11.2475 25.9048 12.6733 27.2762 12.6733 28.9524C12.6733 30.6286 11.2475 32 9.50495 32C7.76238 32 6.33663 30.6286 6.33663 28.9524C6.33663 27.2762 7.76238 25.9048 9.50495 25.9048ZM25.3465 25.9048C27.0891 25.9048 28.5148 27.2762 28.5148 28.9524C28.5148 30.6286 27.0891 32 25.3465 32C23.604 32 22.1782 30.6286 22.1782 28.9524C22.1782 27.2762 23.604 25.9048 25.3465 25.9048ZM9.82178 21.0286C9.82178 21.181 9.9802 21.3333 10.1386 21.3333H28.5148V24.381H9.50495C7.76238 24.381 6.33663 23.0095 6.33663 21.3333C6.33663 20.7238 6.49505 20.2667 6.65346 19.8095L8.71287 16.1524L3.16832 4.57143H0V1.52381H5.22772L12.0396 15.2381H23.1287L29.3069 4.57143L32 6.09524L25.8218 16.7619C25.3465 17.6762 24.2376 18.2857 23.1287 18.2857H11.2475L9.82178 20.7238V21.0286ZM13.3069 0C14.5743 0 15.5248 0.914286 15.5248 2.13333C15.5248 3.35238 14.5743 4.26667 13.3069 4.26667C12.0396 4.26667 11.0891 3.35238 11.0891 2.13333C11.0891 0.914286 12.198 0 13.3069 0ZM21.5446 12.1905C20.2772 12.1905 19.3267 11.2762 19.3267 10.0571C19.3267 8.83809 20.2772 7.92381 21.5446 7.92381C22.8119 7.92381 23.7624 8.83809 23.7624 10.0571C23.7624 11.2762 22.6535 12.1905 21.5446 12.1905ZM12.9901 12.1905L11.0891 10.3619L21.8614 0L23.7624 1.82857L12.9901 12.1905Z" fill="white"/>
</svg>
