<svg width="389" height="93" viewBox="0 0 389 93" fill="none" xmlns="http://www.w3.org/2000/svg">
<path d="M0.125 0.125H388.875V92.875H0.125V92.7874V92.5751V92.3632V92.1517V91.9405V91.7297V91.5192V91.3091V91.0994V90.89V90.6809V90.4722V90.2639V90.0559V89.8482V89.6409V89.4339V89.2273V89.021V88.815V88.6094V88.4041V88.1992V87.9946V87.7903V87.5863V87.3827V87.1794V86.9764V86.7738V86.5714V86.3694V86.1677V85.9664V85.7653V85.5646V85.3642V85.164V84.9642V84.7647V84.5656V84.3667V84.1681V83.9698V83.7719V83.5742V83.3768V83.1798V82.983V82.7865V82.5904V82.3945V82.1989V82.0036V81.8085V81.6138V81.4194V81.2252V81.0313V80.8377V80.6444V80.4513V80.2586V80.0661V79.8739V79.6819V79.4903V79.2989V79.1077V78.9168V78.7262V78.5359V78.3458V78.156V77.9665V77.7772V77.5881V77.3993V77.2108V77.0225V76.8345V76.6467V76.4592V76.2719V76.0849V75.8981V75.7115V75.5252V75.3391V75.1533V74.9677V74.7823V74.5972V74.4123V74.2277V74.0432V73.859V73.675V73.4913V73.3078V73.1245V72.9414V72.7585V72.5759V72.3934V72.2112V72.0292V71.8474V71.6658V71.4845V71.3033V71.1224V70.9416V70.7611V70.5807V70.4006V70.2207V70.0409V69.8614V69.682V69.5029V69.3239V69.1451V68.9666V68.7882V68.61V68.4319V68.2541V68.0764V67.899V67.7217V67.5446V67.3676V67.1909V67.0143V66.8379V66.6616V66.4855V66.3096V66.1339V65.9583V65.7829V65.6077V65.4326V65.2577V65.0829V64.9083V64.7338V64.5595V64.3854V64.2114V64.0375V63.8638V63.6903V63.5169V63.3436V63.1705V62.9975V62.8247V62.652V62.4794V62.307V62.1347V61.9625V61.7905V61.6186V61.4468V61.2752V61.1036V60.9323V60.761V60.5898V60.4188V60.2479V60.0771V59.9064V59.7358V59.5654V59.395V59.2248V59.0547V58.8847V58.7148V58.545V58.3752V58.2056V58.0361V57.8667V57.6974V57.5282V57.3591V57.1901V57.0211V56.8523V56.6835V56.5149V56.3463V56.1778V56.0094V55.841V55.6728V55.5046V55.3365V55.1685V55.0005V54.8326V54.6648V54.4971V54.3294V54.1618V53.9943V53.8268V53.6594V53.4921V53.3248V53.1576V52.9904V52.8233V52.6562V52.4892V52.3222V52.1553V51.9885V51.8217V51.6549V51.4882V51.3215V51.1549V50.9883V50.8217V50.6552V50.4887V50.3222V50.1558V49.9894V49.8231V49.6567V49.4904V49.3242V49.1579V48.9917V48.8255V48.6593V48.4931V48.327V48.1608V47.9947V47.8286V47.6625V47.4964V47.3303V47.1643V46.9982V46.8321V46.6661V46.5V46.3339V46.1679V46.0018V45.8358V45.6697V45.5036V45.3375V45.1714V45.0053V44.8392V44.673V44.5069V44.3407V44.1745V44.0083V43.8421V43.6758V43.5096V43.3433V43.1769V43.0106V42.8442V42.6778V42.5113V42.3448V42.1783V42.0117V41.8452V41.6785V41.5118V41.3451V41.1783V41.0115V40.8447V40.6778V40.5108V40.3438V40.1767V40.0096V39.8425V39.6752V39.5079V39.3406V39.1732V39.0057V38.8382V38.6706V38.5029V38.3352V38.1674V37.9995V37.8315V37.6635V37.4954V37.3272V37.159V36.9906V36.8222V36.6537V36.4851V36.3165V36.1477V35.9789V35.8099V35.6409V35.4718V35.3026V35.1333V34.9639V34.7944V34.6248V34.4551V34.2853V34.1153V33.9453V33.7752V33.605V33.4346V33.2642V33.0936V32.9229V32.7521V32.5812V32.4102V32.239V32.0678V31.8964V31.7248V31.5532V31.3814V31.2095V31.0375V30.8653V30.693V30.5206V30.348V30.1753V30.0025V29.8295V29.6564V29.4831V29.3097V29.1362V28.9625V28.7886V28.6146V28.4405V28.2662V28.0917V27.9171V27.7424V27.5674V27.3923V27.2171V27.0417V26.8661V26.6904V26.5145V26.3384V26.1621V25.9857V25.8091V25.6324V25.4554V25.2783V25.101V24.9236V24.7459V24.5681V24.39V24.2118V24.0334V23.8549V23.6761V23.4971V23.318V23.1386V22.9591V22.7793V22.5994V22.4193V22.2389V22.0584V21.8776V21.6967V21.5155V21.3342V21.1526V20.9708V20.7888V20.6066V20.4241V20.2415V20.0586V19.8755V19.6922V19.5087V19.325V19.141V18.9568V18.7723V18.5877V18.4028V18.2177V18.0323V17.8467V17.6609V17.4748V17.2885V17.1019V16.9151V16.7281V16.5408V16.3533V16.1655V15.9775V15.7892V15.6007V15.4119V15.2228V15.0335V14.844V14.6542V14.4641V14.2738V14.0832V13.8923V13.7012V13.5097V13.3181V13.1261V12.9339V12.7414V12.5487V12.3556V12.1623V11.9687V11.7748V11.5806V11.3862V11.1915V10.9964V10.8011V10.6055V10.4097V10.2135V10.017V9.82023V9.62316V9.42579V9.22813V9.03016V8.83189V8.63332V8.43444V8.23526V8.03577V7.83597V7.63585V7.43543V7.23469V7.03363V6.83226V6.63057V6.42856V6.22623V6.02358V5.8206V5.6173V5.41367V5.20972V5.00543V4.80082V4.59587V4.39058V4.18497V3.97901V3.77272V3.56608V3.35911V3.1518V2.94414V2.73613V2.52778V2.31908V2.11003V1.90063V1.69088V1.48077V1.27031V1.05949V0.848315V0.636779V0.424882V0.212623V0.125Z" fill="white" stroke="#002987" stroke-width="0.25"/>
</svg>
